<svg width="1200" height="600" viewBox="0 0 1200 600" xmlns="http://www.w3.org/2000/svg">

  <style>
    .box {
      fill: #111827;
      stroke: #38bdf8;
      stroke-width: 2;
      rx: 12;
      ry: 12;
    }

    .title {
      fill: #ffffff;
      font-size: 18px;
      font-family: Arial, sans-serif;
      font-weight: bold;
    }

    .text {
      fill: #cbd5e1;
      font-size: 14px;
      font-family: Arial, sans-serif;
    }

    .arrow {
      stroke: #38bdf8;
      stroke-width: 2;
      marker-end: url(#arrowhead);
    }
  </style>

  <defs>
    <marker id="arrowhead" markerWidth="10" markerHeight="7" refX="9" refY="3.5" orient="auto">
      <polygon points="0 0, 10 3.5, 0 7" fill="#38bdf8"/>
    </marker>
  </defs>

  <rect x="50" y="200" width="200" height="100" class="box"/>
  <text x="75" y="240" class="title">GitHub Repo</text>
  <text x="75" y="265" class="text">Main Branch</text>

  <rect x="320" y="200" width="250" height="100" class="box"/>
  <text x="345" y="240" class="title">GitHub Actions</text>
  <text x="345" y="265" class="text">CI/CD Pipeline</text>

  <rect x="650" y="100" width="250" height="100" class="box"/>
  <text x="675" y="140" class="title">Azure Container Registry</text>
  <text x="675" y="165" class="text">momanportfolioacr</text>

  <rect x="650" y="300" width="250" height="100" class="box"/>
  <text x="675" y="340" class="title">Azure App Service</text>
  <text x="675" y="365" class="text">moman-portfolio-app</text>

  <rect x="950" y="200" width="200" height="100" class="box"/>
  <text x="975" y="240" class="title">Live Website</text>
  <text x="975" y="265" class="text">Portfolio App</text>

  <line x1="250" y1="250" x2="320" y2="250" class="arrow"/>
  <line x1="570" y1="230" x2="650" y2="150" class="arrow"/>
  <line x1="570" y1="270" x2="650" y2="350" class="arrow"/>
  <line x1="900" y1="150" x2="950" y2="230" class="arrow"/>
  <line x1="900" y1="350" x2="950" y2="270" class="arrow"/>

</svg>
